<svg width="20" height="20" viewBox="0 0 20 20" fill="none" xmlns="http://www.w3.org/2000/svg">
<g clip-path="url(#clip0_4578_3366)">
<path d="M19.0833 3.51058H13.375V2.82973C13.375 1.31909 12.1666 0.106323 10.7083 0.106323H9.31246C7.83329 0.106323 6.64579 1.34037 6.64579 2.82973V3.51058H0.916626C0.479126 3.51058 0.104126 3.87228 0.104126 4.34037C0.104126 4.80845 0.458293 5.17015 0.916626 5.17015H2.04163L3.04163 17.468C3.14579 18.8297 4.29163 19.8936 5.62496 19.8936H14.3541C15.6875 19.8936 16.8333 18.8297 16.9375 17.468L17.9375 5.17015H19.0625C19.5 5.17015 19.875 4.80845 19.875 4.34037C19.875 3.87228 19.5416 3.51058 19.0833 3.51058ZM8.24996 2.82973C8.24996 2.23398 8.72913 1.7659 9.31246 1.7659H10.7083C11.2916 1.7659 11.7708 2.25526 11.7708 2.82973V3.51058H8.24996V2.82973ZM15.3333 17.3191C15.2916 17.8297 14.8541 18.234 14.3541 18.234H5.64579C5.14579 18.234 4.70829 17.8297 4.66663 17.3191L3.66663 5.17015H16.3125L15.3333 17.3191Z" fill="black"/>
<path d="M7.85413 16.1914C8.29163 16.1914 8.66663 15.8297 8.66663 15.3616V8.04243C8.66663 7.59562 8.31246 7.21265 7.85413 7.21265C7.41663 7.21265 7.04163 7.57435 7.04163 8.04243V15.3829C7.04163 15.8297 7.39579 16.1914 7.85413 16.1914Z" fill="black"/>
<path d="M12.1458 16.1914C12.5833 16.1914 12.9583 15.8297 12.9583 15.3616V8.04243C12.9583 7.59562 12.6041 7.21265 12.1458 7.21265C11.7083 7.21265 11.3333 7.57435 11.3333 8.04243V15.3829C11.3541 15.8297 11.7083 16.1914 12.1458 16.1914Z" fill="black"/>
</g>
<defs>
<clipPath id="clip0_4578_3366">
<rect width="20" height="20" fill="white"/>
</clipPath>
</defs>
</svg>
