<svg width="30" height="30" viewBox="0 0 30 30" fill="none" xmlns="http://www.w3.org/2000/svg">
<path d="M15 30C23.2843 30 30 23.2843 30 15C30 6.71573 23.2843 0 15 0C6.71573 0 0 6.71573 0 15C0 23.2843 6.71573 30 15 30Z" fill="#63A63E"/>
<path d="M22.5641 9.57552C22.3863 9.39882 22.0992 9.39882 21.9213 9.57552L13.54 17.9564C13.3622 18.1331 13.0751 18.1331 12.8973 17.9564L9.19725 14.2569C9.01944 14.0802 8.73234 14.0802 8.55453 14.2569L6.94771 15.8637C6.77101 16.0415 6.77101 16.3286 6.94771 16.5064L12.8973 22.4564C13.0751 22.6331 13.3622 22.6331 13.54 22.4564L15.1473 20.8492L15.79 20.2064L24.1709 11.8255C24.3476 11.6477 24.3476 11.3606 24.1709 11.1828L22.5641 9.57552Z" fill="white"/>
</svg>
