<svg width="12" height="12" viewBox="0 0 12 12" fill="none" xmlns="http://www.w3.org/2000/svg">
<path fill-rule="evenodd" clip-rule="evenodd" d="M6 12C9.31371 12 12 9.31371 12 6C12 2.68629 9.31371 0 6 0C2.68629 0 0 2.68629 0 6C0 9.31371 2.68629 12 6 12ZM6.67568 9.85475C6.77177 9.75792 6.81982 9.64294 6.81982 9.5098V5.38265C6.81982 5.24951 6.77177 5.13452 6.67568 5.03769C6.57958 4.94086 6.46547 4.89244 6.33333 4.89244H5.66667C5.53453 4.89244 5.42042 4.94086 5.32432 5.03769C5.22823 5.13452 5.18018 5.24951 5.18018 5.38265V9.5098C5.18018 9.64294 5.22823 9.75792 5.32432 9.85475C5.42042 9.95158 5.53453 10 5.66667 10H6.33333C6.46547 10 6.57958 9.95158 6.67568 9.85475ZM6.85586 3.87003C6.95195 3.7732 7 3.65821 7 3.52507V2.4902C7 2.35706 6.95195 2.24208 6.85586 2.14525C6.75976 2.04842 6.64565 2 6.51351 2H5.48649C5.35435 2 5.24024 2.04842 5.14414 2.14525C5.04805 2.24208 5 2.35706 5 2.4902V3.52507C5 3.65821 5.04805 3.7732 5.14414 3.87003C5.24024 3.96686 5.35435 4.01527 5.48649 4.01527H6.51351C6.64565 4.01527 6.75976 3.96686 6.85586 3.87003Z" fill="#242424"/>
</svg>
